<svg xmlns="http://www.w3.org/2000/svg" version="1.1" x="0px" y="0px" width="100px" height="100px" viewBox="0 0 100 100" enable-background="new 0 0 100 100" xml:space="preserve"><path fill-rule="evenodd" clip-rule="evenodd" fill="#3A3D3F" d="M65.015 13.706c-0.435 0.085-0.84 0.213-1.169 0.439 -0.097 0.146-0.194 0.292-0.292 0.438 -0.194 0.048-0.391 0.097-0.585 0.146 0 0.049 0 0.097 0 0.146 -0.098 0-0.195 0-0.292 0 0 0.049 0 0.098 0 0.146 -0.341 0-0.683 0-1.023 0 0 0.049 0 0.098 0 0.147 -0.342 0-0.683 0-1.024 0 0 0.049 0 0.098 0 0.146 -0.633-0.048-1.267-0.097-1.9-0.146 -2.015-0.002-4.197-0.07-5.703 0.438 -0.34 0.049-0.682 0.097-1.022 0.146 -0.049 0.098-0.097 0.195-0.146 0.292 -0.098 0-0.195 0-0.293 0 0 0.048 0 0.097 0 0.146 -0.098 0.049-0.195 0.097-0.292 0.146 0 0.098 0 0.196 0 0.293 -0.147 0.098-0.293 0.195-0.439 0.292 0 0.097 0 0.195 0 0.292 -0.049 0-0.098 0-0.146 0 0 0.098 0 0.195 0 0.292 -0.048 0-0.098 0-0.146 0 0 0.098 0 0.195 0 0.293 -0.049 0-0.097 0-0.147 0 0 0.097 0 0.195 0 0.292 -0.097 0.049-0.195 0.098-0.292 0.146 0 0.098 0 0.195 0 0.292 -0.098 0.049-0.195 0.097-0.292 0.146 0 0.098 0 0.196 0 0.293 -0.048 0-0.097 0-0.145 0 -0.098 0.292-0.196 0.584-0.294 0.877 -0.292 0.244-0.584 0.488-0.876 0.731 0 0.097 0 0.195 0 0.292 -0.098 0.049-0.195 0.098-0.292 0.146 0 0.098 0 0.195 0 0.293 -0.195 0.146-0.39 0.292-0.584 0.438 -0.049 0.146-0.097 0.292-0.147 0.438 -0.097 0.049-0.195 0.097-0.292 0.146 0 0.098 0 0.196 0 0.293 -0.049 0-0.098 0-0.146 0 -0.312 0.372-0.735 0.642-0.877 1.169 -0.097 0-0.195 0-0.292 0 -0.292 0.342-0.584 0.683-0.877 1.023 -0.098 0.049-0.195 0.098-0.293 0.147 0 0.098 0 0.195 0 0.292 -0.146 0.097-0.292 0.195-0.438 0.292 0 0.098 0 0.195 0 0.292 -0.098 0.049-0.195 0.097-0.293 0.146 0 0.098 0 0.196 0 0.293 -0.048 0-0.097 0-0.146 0 0 0.098 0 0.195 0 0.292 -0.049 0-0.097 0-0.146 0 0 0.146 0 0.292 0 0.438 -0.146 0.098-0.292 0.195-0.438 0.292 0 0.098 0 0.195 0 0.293 -0.244 0.195-0.487 0.39-0.731 0.584 0 0.097 0 0.195 0 0.292 -0.341 0.292-0.683 0.585-1.023 0.877 0 0.098 0 0.195 0 0.292 -0.098 0.049-0.195 0.097-0.292 0.146 0 0.098 0 0.196 0 0.293 -0.146 0.098-0.292 0.195-0.438 0.292 -0.049 0.195-0.098 0.39-0.146 0.584 -0.585 0.537-1.17 1.072-1.755 1.609 -0.097 0-0.195 0-0.292 0 -0.195 0.243-0.39 0.487-0.585 0.73 -0.097 0.049-0.195 0.097-0.292 0.146 0 0.098 0 0.196 0 0.293 -0.146 0.098-0.292 0.195-0.439 0.292 0 0.097 0 0.195 0 0.292 -0.146 0.098-0.292 0.195-0.438 0.292 0 0.097 0 0.195 0 0.292 -0.049 0-0.098 0-0.146 0 -0.098 0.147-0.195 0.293-0.292 0.439 0.195 0 0.39 0 0.585 0 0 0.098 0 0.195 0 0.292 1.267 0.097 2.534 0.195 3.801 0.292 0.146 0.195 0.292 0.391 0.438 0.585 0.098 0 0.195 0 0.292 0 0 0.049 0 0.097 0 0.146 0.244 0 0.487 0 0.731 0 0 0.049 0 0.098 0 0.146 0.098 0 0.195 0 0.292 0 0.049 0.098 0.098 0.195 0.146 0.292 0.097 0 0.195 0 0.292 0 0.049 0.097 0.098 0.196 0.146 0.293 0.478 0.325 0.855 0.367 1.024 1.023 0.048 0 0.097 0 0.146 0 0 0.049 0 0.098 0 0.146 -0.05 0-0.098 0-0.146 0 0 0.293 0 0.585 0 0.877 -0.465 0.272-0.442 0.455-0.731 0.877 -0.098 0.049-0.195 0.098-0.293 0.146 0 0.098 0 0.195 0 0.292 -0.048 0-0.097 0-0.146 0 -0.049 0.097-0.097 0.195-0.146 0.292 -0.098 0-0.195 0-0.292 0 -0.097 0.147-0.195 0.293-0.292 0.439 -0.097 0-0.195 0-0.292 0 -0.049 0.097-0.098 0.195-0.147 0.292 -0.097 0-0.195 0-0.292 0 -0.146 0.195-0.292 0.39-0.439 0.584 -0.097 0-0.195 0-0.292 0 -0.098 0.147-0.195 0.293-0.292 0.439 -0.098 0-0.195 0-0.292 0 -0.049 0.098-0.097 0.195-0.146 0.292 -0.097 0-0.195 0-0.292 0 -0.098 0.146-0.195 0.292-0.292 0.439 -0.097 0-0.195 0-0.292 0 -0.098 0.146-0.195 0.292-0.292 0.438 -0.097 0-0.195 0-0.292 0 -0.049 0.098-0.097 0.195-0.146 0.292 -0.098 0-0.195 0-0.292 0 -0.097 0.146-0.195 0.292-0.292 0.438 -0.097 0-0.195 0-0.292 0 -0.098 0.147-0.195 0.293-0.293 0.439 -0.048 0-0.097 0-0.146 0 -0.049 0.097-0.097 0.195-0.146 0.292 -0.098 0-0.195 0-0.292 0 -0.39 0.438-0.78 0.877-1.17 1.316 -0.098 0-0.195 0-0.292 0 -0.146 0.195-0.292 0.39-0.438 0.585 -0.098 0-0.195 0-0.292 0 -0.244 0.292-0.487 0.584-0.731 0.877 -0.098 0.049-0.195 0.097-0.292 0.146 0 0.098 0 0.196 0 0.293 -0.146 0.098-0.292 0.195-0.438 0.292 -0.049 0.195-0.098 0.39-0.146 0.584 -0.292 0.243-0.584 0.488-0.877 0.731 0 0.097 0 0.195 0 0.292 -0.146 0.098-0.292 0.195-0.438 0.293 0 0.097 0 0.195 0 0.292 -0.098 0.048-0.195 0.097-0.293 0.146 0 0.098 0 0.195 0 0.293 -0.097 0.049-0.195 0.098-0.292 0.146 -0.049 0.194-0.098 0.39-0.146 0.585 -0.049 0-0.098 0-0.146 0 -0.049 0.194-0.098 0.39-0.146 0.584 -0.048 0-0.097 0-0.146 0 -0.049 0.243-0.097 0.488-0.146 0.731 -0.098 0.049-0.195 0.098-0.292 0.146 -0.049 0.194-0.098 0.39-0.146 0.584 -0.048 0-0.097 0-0.146 0 -0.049 0.146-0.097 0.292-0.146 0.439 -0.098 0.049-0.195 0.097-0.293 0.146 -0.048 0.195-0.097 0.39-0.146 0.585 -0.097 0.049-0.195 0.098-0.292 0.146 0 0.099 0 0.195 0 0.294 -0.098 0.048-0.195 0.097-0.292 0.146 -0.048 0.195-0.097 0.39-0.146 0.585 -0.049 0-0.097 0-0.146 0 -0.049 0.341-0.097 0.683-0.146 1.023 -0.049 0-0.098 0-0.146 0 0 0.098 0 0.194 0 0.292 -0.049 0-0.098 0-0.146 0 0 0.098 0 0.195 0 0.292 -0.097 0.049-0.195 0.099-0.292 0.147 -0.049 0.243-0.097 0.486-0.146 0.73 -0.049 0-0.098 0-0.146 0 0 0.098 0 0.194 0 0.292 -0.049 0-0.098 0-0.146 0 0 0.146 0 0.293 0 0.439 -0.049 0-0.098 0-0.146 0 -0.17 0.569 0.262 0.703 0 1.315 -0.048 0-0.097 0-0.146 0 -0.049 0.195-0.097 0.39-0.146 0.585 -0.195 0.146-0.39 0.293-0.585 0.438 -0.146 0.536-0.292 1.072-0.438 1.608 -0.146 0.098-0.292 0.194-0.439 0.292 0 0.098 0 0.195 0 0.292 -0.049 0-0.097 0-0.146 0 0 0.099 0 0.196 0 0.293 -0.049 0-0.098 0-0.146 0 0 0.098 0 0.195 0 0.293 -0.049 0-0.098 0-0.146 0 0 0.097 0 0.194 0 0.292 -0.048 0-0.097 0-0.146 0 0 0.098 0 0.194 0 0.292 -0.146 0.098-0.292 0.195-0.438 0.292 0 0.099 0 0.196 0 0.293 -0.098 0.049-0.195 0.098-0.293 0.146 -0.048 0.243-0.097 0.487-0.146 0.731 -0.097 0.048-0.195 0.098-0.292 0.146 0 0.097 0 0.194 0 0.292 -0.049 0-0.098 0-0.147 0 -0.097 0.487-0.195 0.975-0.292 1.462 -0.049 0-0.098 0-0.146 0 0 0.098 0 0.194 0 0.292 -0.098 0.049-0.195 0.098-0.293 0.147 0 0.145 0 0.292 0 0.438 -0.097 0.049-0.195 0.098-0.292 0.146 0 0.098 0 0.195 0 0.292 -0.049 0-0.098 0-0.146 0 -0.049 0.342-0.098 0.683-0.146 1.023 -0.049 0-0.098 0-0.146 0 0 0.098 0 0.195 0 0.293 -0.097 0.049-0.195 0.097-0.292 0.146 -0.097 0.439-0.195 0.878-0.292 1.316 -0.098 0.049-0.195 0.098-0.293 0.146 0 0.05 0 0.099 0 0.147 -0.097 0.049-0.195 0.097-0.292 0.146 0 0.098 0 0.195 0 0.293 -0.146 0.097-0.292 0.194-0.439 0.292 -0.21 0.335-0.015 0.743-0.146 1.17 -0.049 0-0.097 0-0.146 0 0 0.194 0 0.39 0 0.585 -0.049 0-0.098 0-0.146 0 -0.049 0.633-0.098 1.267-0.146 1.9 0.146 0.098 0.292 0.194 0.438 0.293 0 0.243 0 0.487 0 0.73 0.049 0 0.098 0 0.146 0 0.231 0.752-0.191 0.889 0.439 1.315 0 0.049 0 0.098 0 0.146 0.12 0.082 2.013 0.285 2.339 0.146 0.049-0.098 0.097-0.195 0.146-0.293 0.488 0 0.975 0 1.462 0 0.278 0.084 0.749 0.496 1.316 0.293 0-0.049 0-0.098 0-0.146 0.097 0 0.195 0 0.292 0 0-0.049 0-0.098 0-0.146 0.098 0 0.195 0 0.293 0 0-0.049 0-0.097 0-0.146 0.097 0 0.195 0 0.292 0 0-0.049 0-0.098 0-0.146 0.098 0 0.195 0 0.292 0 0-0.049 0-0.098 0-0.146 0.098 0 0.195 0 0.292 0 0-0.048 0-0.097 0-0.146 0.097 0 0.195 0 0.292 0 0-0.049 0-0.098 0-0.147 0.439-0.145 0.877-0.292 1.316-0.438 0-0.049 0-0.098 0-0.146 0.146 0 0.292 0 0.439 0 0-0.049 0-0.098 0-0.146 0.098 0 0.195 0 0.292 0 0-0.049 0-0.097 0-0.146 0.146 0 0.292 0 0.439 0 0-0.049 0-0.098 0-0.146 0.195-0.049 0.39-0.098 0.584-0.146 0-0.049 0-0.098 0-0.146 0.098 0 0.195 0 0.292 0 0-0.049 0-0.099 0-0.147 0.146 0 0.292 0 0.438 0 0-0.048 0-0.097 0-0.146 0.098 0 0.195 0 0.292 0 0.049-0.098 0.097-0.195 0.146-0.292 0.244-0.049 0.487-0.098 0.731-0.146 0.049-0.098 0.098-0.195 0.146-0.292 0.195-0.049 0.39-0.099 0.585-0.147 0.049-0.097 0.097-0.194 0.146-0.292 0.098 0 0.195 0 0.292 0 0-0.049 0-0.098 0-0.146 0.098 0 0.195 0 0.292 0 0-0.048 0-0.097 0-0.146 0.097 0 0.195 0 0.292 0 0-0.049 0-0.098 0-0.146 0.098 0 0.195 0 0.293 0 0.048-0.098 0.097-0.194 0.146-0.292 0.195-0.049 0.39-0.098 0.585-0.146 0.048-0.097 0.097-0.195 0.146-0.293 0.195-0.049 0.39-0.097 0.585-0.146 0.097-0.146 0.195-0.293 0.292-0.438 0.292-0.098 0.585-0.195 0.877-0.292 0.049-0.099 0.098-0.195 0.146-0.294 0.097 0 0.195 0 0.292 0 0.049-0.097 0.097-0.194 0.146-0.292 0.098 0 0.195 0 0.292 0 0.049-0.098 0.098-0.194 0.146-0.292 0.097 0 0.195 0 0.292 0 0.049-0.098 0.098-0.195 0.146-0.292 0.244-0.049 0.488-0.098 0.731-0.147 0.049-0.097 0.098-0.194 0.146-0.292 0.098 0 0.195 0 0.292 0 0-0.049 0-0.098 0-0.146 0.195-0.048 0.39-0.097 0.585-0.146 0-0.049 0-0.098 0-0.146 0.146 0 0.292 0 0.438 0 0.049-0.098 0.098-0.194 0.146-0.292 0.146 0 0.293 0 0.439 0 0.049-0.098 0.097-0.195 0.146-0.292 0.195-0.147 0.39-0.293 0.585-0.439 0-0.049 0-0.098 0-0.146 0.098 0 0.195 0 0.292 0 0-0.048 0-0.097 0-0.146 0.217-0.173 0.261-0.201 0.584-0.292 0-0.099 0-0.195 0-0.293 0.098 0 0.195 0 0.293 0 0.097-0.146 0.195-0.293 0.292-0.438 0.098 0 0.195 0 0.292 0 0.293-0.341 0.585-0.683 0.877-1.023 0.097 0 0.195 0 0.292 0 0.147-0.195 0.292-0.39 0.439-0.585 0.146-0.049 0.292-0.098 0.438-0.146 0.049-0.097 0.098-0.194 0.146-0.293 0.098 0 0.195 0 0.292 0 0.147-0.194 0.292-0.39 0.439-0.584 0.048 0 0.098 0 0.146 0 0-0.098 0-0.195 0-0.292 0.098-0.049 0.196-0.099 0.292-0.146 0-0.098 0-0.195 0-0.293 0.098-0.049 0.196-0.098 0.293-0.146 0.243-0.292 0.487-0.584 0.73-0.876 0-0.342 0-0.683 0-1.024 -0.097-0.048-0.195-0.097-0.292-0.146 0.049-0.293 0.097-0.585 0.146-0.878 -0.146-0.049-0.292-0.097-0.439-0.146 0-0.049 0-0.098 0-0.146 -0.098 0-0.195 0-0.292 0 -0.048-0.098-0.097-0.195-0.146-0.293 -0.097 0-0.195 0-0.292 0 -0.048-0.098-0.098-0.194-0.146-0.292 -0.779 0.049-1.56 0.098-2.339 0.146 0-0.048 0-0.097 0-0.146 -0.097 0-0.195 0-0.292 0 0-0.049 0-0.098 0-0.146 -0.683 0-1.365 0-2.047 0 -0.049 0.098-0.097 0.195-0.146 0.292 -0.488 0-0.975 0-1.462 0 -0.049-0.097-0.098-0.194-0.146-0.292 -0.546-0.201-0.647 0.258-0.731 0.292 -0.542 0.223-1.269-0.232-1.608-0.146 0 0.049 0 0.098 0 0.146 -0.097 0-0.195 0-0.292 0 -0.049 0.098-0.097 0.195-0.146 0.293 -0.098 0-0.195 0-0.292 0 -0.049 0.098-0.098 0.195-0.146 0.293 -0.195 0.049-0.39 0.097-0.584 0.146 -0.049 0.098-0.098 0.195-0.146 0.293 -0.244 0.048-0.487 0.097-0.731 0.146 0 0.049 0 0.098 0 0.146 -0.097 0-0.195 0-0.292 0 0 0.049 0 0.098 0 0.146 -0.487 0-0.975 0-1.462 0 0 0.049 0 0.099 0 0.147 -0.098 0-0.195 0-0.292 0 -0.195 0.243-0.39 0.487-0.584 0.73 -0.098 0-0.195 0-0.293 0 -0.048 0.098-0.097 0.194-0.146 0.292 -0.146 0-0.292 0-0.438 0 -0.098 0.147-0.195 0.292-0.293 0.439 -0.146 0-0.292 0-0.438 0 0 0.049 0 0.098 0 0.146 -0.098 0-0.195 0-0.293 0 0 0.049 0 0.098 0 0.146 -0.243 0-0.487 0-0.731 0 0 0.049 0 0.098 0 0.146 -0.438-0.049-0.877-0.098-1.316-0.146 0-0.049 0-0.098 0-0.146 -0.097 0-0.195 0-0.292 0 0-0.048 0-0.097 0-0.146 -0.244 0-0.487 0-0.731 0 0-0.049 0-0.098 0-0.147 -0.097 0-0.195 0-0.292 0 0-0.048 0-0.097 0-0.145 -0.694-0.301-0.697 0.065-1.17-0.586 -0.049 0-0.097 0-0.146 0 0-0.243 0-0.486 0-0.731 -0.118-0.137-0.305-0.974-0.146-1.315 0.146-0.098 0.292-0.194 0.438-0.292 0.049-0.195 0.098-0.39 0.146-0.585 0.098-0.049 0.195-0.097 0.292-0.146 0-0.195 0-0.391 0-0.586 0.049 0 0.097 0 0.146 0 0-0.097 0-0.194 0-0.292 0.098-0.049 0.195-0.098 0.292-0.146 0-0.194 0-0.39 0-0.585 0.098-0.049 0.195-0.098 0.292-0.146 0-0.098 0-0.195 0-0.293 0.195-0.146 0.39-0.292 0.585-0.438 0-0.049 0-0.098 0-0.146 0.097 0 0.195 0 0.292 0 0-0.048 0-0.098 0-0.146 0.098 0 0.195 0 0.292 0 0.098-0.146 0.195-0.292 0.293-0.438 0.097 0 0.195 0 0.292 0 0.049-0.098 0.098-0.195 0.146-0.293 0.097 0 0.195 0 0.292 0 0.195-0.244 0.39-0.487 0.585-0.731 0.097 0 0.195 0 0.292 0 0-0.048 0-0.097 0-0.146 0.098 0 0.195 0 0.292 0 0-0.049 0-0.098 0-0.146 0.098 0 0.195 0 0.292 0 0-0.049 0-0.098 0-0.146 0.097 0 0.195 0 0.292 0 0.049-0.098 0.098-0.195 0.146-0.293 0.098 0 0.195 0 0.292 0 0.098-0.146 0.195-0.293 0.292-0.438 0.438 0 0.877 0 1.316 0 0-0.049 0-0.098 0-0.146 0.146 0 0.292 0 0.438 0 0-0.049 0-0.098 0-0.146 0.098 0 0.195 0 0.292 0 0-0.048 0-0.097 0-0.146 0.39 0 0.78 0 1.17 0 0-0.049 0-0.098 0-0.146 0.097 0 0.195 0 0.292 0 0-0.049 0-0.098 0-0.146 0.39 0 0.78 0 1.17 0 0-0.05 0-0.099 0-0.147 0.633-0.098 1.267-0.194 1.9-0.292 0.098-0.146 0.195-0.292 0.292-0.438 0.146-0.049 0.292-0.098 0.438-0.146 0-0.049 0-0.097 0-0.146 0.877-0.195 1.755-0.391 2.632-0.586 0-0.048 0-0.097 0-0.146 0.195-0.049 0.39-0.098 0.584-0.146 0-0.049 0-0.098 0-0.146 0.343-0.277 0.539-0.599 1.024-0.731 0.048-0.244 0.097-0.487 0.146-0.73 -0.341-0.244-0.682-0.488-1.023-0.731 -0.049-0.146-0.098-0.293-0.146-0.438 -0.097 0-0.195 0-0.292 0 -0.049-0.098-0.097-0.196-0.146-0.292 -0.292-0.244-0.585-0.488-0.877-0.731 -0.147-0.195-0.293-0.39-0.439-0.585 -0.098 0-0.195 0-0.292 0 -0.049-0.098-0.098-0.195-0.146-0.292 -0.097 0-0.195 0-0.292 0 0-0.049 0-0.097 0-0.146 -0.195-0.049-0.39-0.098-0.585-0.146 0-0.049 0-0.098 0-0.146 -0.244-0.048-0.487-0.097-0.731-0.146 -0.292-0.342-0.585-0.683-0.877-1.023 -0.146-0.098-0.292-0.195-0.438-0.292 0-0.488 0-0.975 0-1.462 0.789-0.412 2.149-0.304 3.363-0.292 0 0.098 0 0.195 0 0.292 0.647 0.341 1.034 0.306 2.047 0.293 0 0.049 0 0.097 0 0.146 0.146 0 0.292 0 0.438 0 0.146 0.195 0.293 0.39 0.439 0.584 0.292 0.049 0.585 0.098 0.877 0.146 0 0.049 0 0.098 0 0.147 0.584 0 1.169 0 1.754 0 0 0.048 0 0.098 0 0.146 0.195 0.049 0.391 0.098 0.585 0.146 0 0.097 0 0.195 0 0.292 0.168 0.088 0.224 0.251 0.292 0.292 0.097 0 0.195 0 0.292 0 0 0.048 0 0.097 0 0.146 0.341 0.049 0.682 0.097 1.023 0.146 0 0.049 0 0.098 0 0.147 0.232 0.164 0.25 0.201 0.584 0.292 0 0.098 0 0.195 0 0.292 0.584 0.51 0.528 1.259 1.608 1.316 0 0.049 0 0.097 0 0.146 0.39 0 0.779 0 1.17 0 0 0.049 0 0.098 0 0.146 0.098 0 0.195 0 0.293 0 0.098 0.147 0.194 0.292 0.292 0.439 0.487 0 0.975 0 1.462 0 0 0.048 0 0.097 0 0.146 0.146 0 0.293 0 0.438 0 0 0.049 0 0.098 0 0.146 0.244-0.049 0.487-0.098 0.731-0.146 0-0.049 0-0.098 0-0.146 0.342 0 0.682 0 1.023 0 0-0.049 0-0.098 0-0.147 0.243 0 0.487 0 0.731 0 0-0.049 0-0.097 0-0.146 0.194-0.049 0.39-0.098 0.584-0.147 0.146-0.195 0.292-0.39 0.439-0.584 0.098 0 0.194 0 0.292 0 0-0.048 0-0.097 0-0.146 0.098 0 0.195 0 0.292 0 0-0.049 0-0.097 0-0.146 0.195 0 0.39 0 0.585 0 0-0.05 0-0.098 0-0.146 0.194-0.049 0.39-0.099 0.584-0.147 0-0.049 0-0.098 0-0.146 0.147 0 0.293 0 0.439 0 0-0.048 0-0.097 0-0.146 0.195-0.049 0.39-0.097 0.585-0.146 0-0.049 0-0.098 0-0.146 0.146 0 0.293 0 0.438 0 0-0.049 0-0.098 0-0.146 0.098 0 0.195 0 0.292 0 0-0.048 0-0.097 0-0.146 0.342 0 0.683 0 1.024 0 0-0.049 0-0.097 0-0.146 1.462-0.049 2.924-0.098 4.386-0.147 0 0.049 0 0.098 0 0.147 0.293 0 0.585 0 0.877 0 0 0.049 0 0.097 0 0.146 0.147 0 0.292 0 0.439 0 0 0.049 0 0.098 0 0.146 0.243 0 0.487 0 0.73 0 0 0.049 0 0.098 0 0.146 0.098 0 0.195 0 0.293 0 0 0.048 0 0.097 0 0.146 0.438 0 0.877 0 1.315 0 0 0.049 0 0.097 0 0.146 0.258 0.093 0.383 0.066 0.585 0.146 0.318 0.69 0.309 1.063 0.146 1.901 -0.146 0.049-0.293 0.098-0.438 0.146 0 0.049 0 0.098 0 0.146 -0.098 0-0.195 0-0.293 0 0 0.049 0 0.098 0 0.146 -0.097 0-0.194 0-0.292 0 -0.05 0.097-0.098 0.194-0.146 0.292 -0.195 0.049-0.39 0.098-0.585 0.146 0 0.049 0 0.099 0 0.147 -0.292 0-0.585 0-0.877 0 0 0.048 0 0.097 0 0.146 -0.195 0.049-0.391 0.098-0.586 0.146 0 0.049 0 0.098 0 0.146 -0.145 0-0.292 0-0.438 0 0 0.049 0 0.098 0 0.146 -0.098 0-0.195 0-0.293 0 0 0.049 0 0.098 0 0.146 -0.146 0-0.293 0-0.438 0 -0.049 0.097-0.097 0.194-0.146 0.293 -0.098 0-0.194 0-0.292 0 -0.098 0.146-0.195 0.292-0.292 0.438 -0.098 0-0.195 0-0.293 0 -0.097 0.146-0.194 0.292-0.292 0.438 -0.194 0.049-0.391 0.098-0.585 0.146 0 0.049 0 0.098 0 0.146 -0.146 0.049-0.293 0.097-0.438 0.146 -0.05 0.099-0.098 0.196-0.147 0.293 -0.194 0.049-0.39 0.098-0.584 0.146 -0.098 0.146-0.195 0.292-0.292 0.438 -0.098 0-0.195 0-0.293 0 0 0.049 0 0.098 0 0.146 -0.097 0-0.194 0-0.292 0 0 0.049 0 0.099 0 0.146 -0.098 0-0.194 0-0.293 0 0 0.049 0 0.098 0 0.147 -0.098 0-0.194 0-0.292 0 -0.049 0.097-0.098 0.194-0.146 0.292 -0.146 0-0.292 0-0.438 0 0 0.049 0 0.098 0 0.146 -0.269 0.213-0.333 0.178-0.438 0.586 -0.098 0-0.195 0-0.292 0 -0.13 0.478-0.452 0.689-0.731 1.022 -0.049 0-0.098 0-0.146 0 0 0.098 0 0.195 0 0.292 -0.146 0.099-0.292 0.196-0.439 0.293 -0.242 0.293-0.486 0.585-0.73 0.877 -0.194 0.146-0.39 0.293-0.584 0.439 0 0.194 0 0.39 0 0.584 -0.244 0.049-0.488 0.098-0.731 0.147 0.08 0.402 0.269 0.785 0.438 1.169 0.049 0 0.097 0 0.146 0 0 0.39 0 0.779 0 1.169 -0.05 0-0.098 0-0.146 0 0.097 0.342 0.194 0.683 0.293 1.024 0.146 0.097 0.292 0.194 0.438 0.292 0 0.098 0 0.194 0 0.293 0.097 0.049 0.194 0.098 0.292 0.146 0 0.098 0 0.195 0 0.293 0.194 0.146 0.39 0.292 0.584 0.438 0 0.097 0 0.194 0 0.293 0.099 0.048 0.196 0.097 0.293 0.145 0 0.099 0 0.196 0 0.293 0.146 0.098 0.293 0.195 0.438 0.293 0 0.097 0 0.194 0 0.292 0.147 0.098 0.293 0.195 0.439 0.293 0 0.146 0 0.292 0 0.438 0.194 0.146 0.39 0.292 0.584 0.438 0 0.097 0 0.194 0 0.293 0.098 0.049 0.195 0.097 0.293 0.146 0 0.098 0 0.195 0 0.293 0.146 0.097 0.293 0.194 0.438 0.292 0 0.146 0 0.292 0 0.439 0.146 0.097 0.293 0.194 0.438 0.292 0 0.098 0 0.194 0 0.292 0.099 0.049 0.195 0.098 0.293 0.146 0 0.097 0 0.194 0 0.292 0.098 0.049 0.195 0.098 0.292 0.146 0.049 0.146 0.098 0.293 0.146 0.438 0.05 0 0.099 0 0.147 0 0.049 0.195 0.097 0.39 0.146 0.585 0.098 0.049 0.195 0.097 0.293 0.146 0 0.147 0 0.293 0 0.439 0.195 0.146 0.39 0.292 0.585 0.438 0 0.098 0 0.194 0 0.292 0.098 0.049 0.194 0.098 0.292 0.146 0 0.098 0 0.195 0 0.293 0.487 0.438 0.975 0.876 1.462 1.315 0 0.098 0 0.195 0 0.292 0.244 0.195 0.488 0.39 0.73 0.586 0.05 0.146 0.098 0.292 0.147 0.438 0.292 0.097 0.584 0.194 0.876 0.292 0.245 0.438 0.488 0.877 0.731 1.315 0.098 0 0.195 0 0.293 0 0 0.098 0 0.195 0 0.292 0.39 0.244 0.779 0.488 1.17 0.731 0.098 0.293 0.195 0.586 0.292 0.878 0.098 0.049 0.195 0.098 0.293 0.146 0 0.098 0 0.195 0 0.293 0.048 0 0.097 0 0.146 0 0.209 0.255 0.338 0.352 0.438 0.731 0.098 0 0.195 0 0.292 0 0.391 0.438 0.781 0.876 1.171 1.315 0.098 0.049 0.194 0.098 0.292 0.146 0 0.097 0 0.194 0 0.292 0.098 0.049 0.195 0.098 0.292 0.146 0 0.048 0 0.097 0 0.146 0.098 0 0.195 0 0.293 0 0.049 0.098 0.097 0.195 0.146 0.292 0.146 0 0.292 0 0.438 0 0.05 0.099 0.098 0.196 0.147 0.293 0.097 0 0.194 0 0.292 0 0 0.049 0 0.098 0 0.146 0.194 0 0.39 0 0.584 0 0.05 0.098 0.098 0.195 0.147 0.292 0.194 0.049 0.39 0.098 0.584 0.146 0.342 0.391 0.683 0.78 1.023 1.17 0.585 0 1.17 0 1.755 0 0 0.049 0 0.097 0 0.146 0.341 0.049 0.683 0.098 1.023 0.147 0.251-0.3 0.318-0.122 0.585-0.293 0.048-0.098 0.098-0.195 0.146-0.293 0.097 0 0.194 0 0.292 0 0-0.048 0-0.097 0-0.146 0.098 0 0.194 0 0.292 0 0.195-0.244 0.391-0.488 0.585-0.731 0.098-0.049 0.195-0.098 0.293-0.146 0-0.097 0-0.194 0-0.292 0.097-0.049 0.194-0.098 0.292-0.146 0.149-0.28 0.12-0.887 0.292-1.169 0.098-0.049 0.195-0.098 0.292-0.146 0-0.098 0-0.195 0-0.292 0.05 0 0.099 0 0.147 0 0-0.099 0-0.195 0-0.293 0.098-0.049 0.194-0.098 0.292-0.146 0-0.098 0-0.194 0-0.292 0.049 0 0.098 0 0.146 0 0-0.098 0-0.195 0-0.292 0.049 0 0.097 0 0.146 0 0-0.099 0-0.195 0-0.293 0.05 0 0.098 0 0.146 0 0-0.098 0-0.195 0-0.293 0.049 0 0.099 0 0.146 0 0-0.097 0-0.194 0-0.292 0.097-0.049 0.194-0.098 0.293-0.146 0.049-0.194 0.097-0.39 0.146-0.585 0.049 0 0.098 0 0.146 0 0-0.098 0-0.194 0-0.292 0.049 0 0.098 0 0.146 0 0.097-0.292 0.194-0.585 0.292-0.878 0.049 0 0.098 0 0.146 0 0.098-0.438 0.195-0.876 0.292-1.315 0.049 0 0.098 0 0.146 0 0.098-0.438 0.195-0.877 0.292-1.315 0.049 0 0.098 0 0.146 0 0-0.098 0-0.195 0-0.293 0.049 0 0.098 0 0.146 0 0-0.146 0-0.292 0-0.438 0.048 0 0.097 0 0.146 0 0-0.146 0-0.294 0-0.439 0.05 0 0.098 0 0.147 0 0-0.098 0-0.195 0-0.292 0.048 0 0.097 0 0.145 0 0-0.098 0-0.195 0-0.293 0.147-0.049 0.293-0.097 0.439-0.146 0-0.049 0-0.098 0-0.147 0.294 0.084 0.127-0.017 0.292 0.147 0.05 0 0.098 0 0.146 0 0 0.39 0 0.779 0 1.17 0.049 0 0.098 0 0.146 0 0 0.146 0 0.292 0 0.438 0.049 0 0.097 0 0.146 0 0 0.195 0 0.39 0 0.586 0.048 0 0.098 0 0.146 0 0 0.438 0 0.876 0 1.314 0.049 0 0.098 0 0.146 0 0 0.099 0 0.196 0 0.293 0.048 0 0.098 0 0.146 0 0 0.146 0 0.293 0 0.438 0.049 0 0.098 0 0.146 0 0 0.341 0 0.683 0 1.023 0.049 0 0.098 0 0.146 0 0 0.098 0 0.195 0 0.293 0.049 0 0.099 0 0.146 0 0 0.146 0 0.293 0 0.438 0.049 0 0.097 0 0.146 0 0 0.342 0 0.683 0 1.024 0.048 0 0.098 0 0.146 0 0 0.098 0 0.194 0 0.293 0.05 0 0.098 0 0.146 0 0.048 0.39 0.098 0.779 0.146 1.169 0.049 0 0.097 0 0.146 0 0 0.098 0 0.195 0 0.293 0.048 0 0.097 0 0.146 0 0.049 0.39 0.098 0.779 0.146 1.169 0.049 0 0.098 0 0.146 0 0 0.098 0 0.195 0 0.293 0.048 0 0.097 0 0.146 0 0.05 0.39 0.098 0.779 0.147 1.169 0.097 0.049 0.194 0.098 0.292 0.146 0 0.195 0 0.39 0 0.585 0.049 0 0.098 0 0.146 0 0.049 0.341 0.098 0.683 0.146 1.023 0.049 0 0.098 0 0.146 0 0.049 0.683 0.097 1.364 0.146 2.047 0.098 0.049 0.195 0.098 0.293 0.146 0.049 0.243 0.097 0.487 0.146 0.731 0.098 0.048 0.194 0.097 0.292 0.146 0 0.098 0 0.195 0 0.292 0.048 0 0.098 0 0.146 0 0 0.098 0 0.195 0 0.293 0.049 0 0.098 0 0.146 0 0 0.146 0 0.293 0 0.438 0.098 0.049 0.195 0.098 0.293 0.146 0.097 0.292 0.194 0.584 0.292 0.877 0.098 0.049 0.194 0.098 0.293 0.146 0.049 0.293 0.097 0.586 0.146 0.879 0.048 0 0.097 0 0.146 0 0.049 0.097 0.098 0.194 0.146 0.292 0.098 0 0.194 0 0.292 0 0.081 0.063 0.553 0.788 0.585 0.877 0.412 1.125-0.724 2.893-1.169 3.217 -0.098 0-0.195 0-0.293 0 -0.244 0.292-0.486 0.584-0.731 0.877 -0.146 0-0.292 0-0.438 0 -0.048 0.098-0.098 0.195-0.146 0.292 -0.098 0-0.195 0-0.293 0 0 0.049 0 0.098 0 0.146 -0.536 0.049-1.072 0.098-1.608 0.146 0 0.049 0 0.097 0 0.146 -0.535 0-1.072 0-1.608 0 0 0.049 0 0.098 0 0.146 -0.341 0-0.682 0-1.023 0 -0.048 0.098-0.097 0.195-0.146 0.292 -0.639 0.265-2.504-0.316-2.925-0.438 -0.438 0-0.878 0-1.315 0 0-0.049 0-0.097 0-0.146 -0.146 0-0.293 0-0.438 0 0-0.049 0-0.098 0-0.146 -0.146 0-0.293 0-0.439 0 -0.098-0.146-0.194-0.292-0.292-0.438 -0.098 0-0.195 0-0.292 0 -0.049-0.098-0.098-0.194-0.146-0.293 -0.098 0-0.195 0-0.292 0 0-0.049 0-0.098 0-0.146 -0.391-0.049-0.78-0.098-1.17-0.146 0-0.049 0-0.098 0-0.146 -0.243 0-0.487 0-0.731 0 0-0.049 0-0.097 0-0.146 -0.146 0-0.292 0-0.438 0 0-0.049 0-0.098 0-0.146 -0.195-0.049-0.391-0.098-0.585-0.146 0-0.048 0-0.098 0-0.146 -0.098 0-0.195 0-0.292 0 -0.195-0.244-0.39-0.488-0.585-0.731 -0.146 0-0.292 0-0.439 0 -0.048-0.098-0.097-0.195-0.146-0.292 -0.146-0.049-0.292-0.098-0.438-0.147 -0.101-0.131-0.129-0.602-0.292-0.73 -0.098 0-0.195 0-0.293 0 -0.049-0.098-0.097-0.194-0.146-0.292 -0.292 0-0.584 0-0.877 0 -0.097-0.146-0.194-0.292-0.292-0.439 -0.194-0.049-0.391-0.097-0.585-0.146 -0.049-0.098-0.099-0.195-0.146-0.293 -0.098 0-0.194 0-0.292 0 -0.224-0.189 0.011-0.447-0.146-0.73 -0.049 0-0.098 0-0.146 0 -0.097-0.146-0.195-0.293-0.292-0.438 -0.39-0.098-0.78-0.195-1.17-0.293 -0.146-0.194-0.292-0.39-0.439-0.585 -0.194-0.146-0.39-0.292-0.584-0.438 0-0.049 0-0.098 0-0.146 -0.098 0-0.195 0-0.293 0 -0.341-0.39-0.682-0.78-1.023-1.17 -0.097 0-0.194 0-0.292 0 -0.243-0.292-0.487-0.585-0.731-0.878 -0.098-0.049-0.194-0.097-0.292-0.146 0-0.098 0-0.195 0-0.293 -0.098-0.048-0.195-0.097-0.292-0.146 0-0.098 0-0.195 0-0.292 -0.05 0-0.098 0-0.147 0 -0.242-0.499 0.192-0.146-0.292-0.586 0-0.049 0-0.097 0-0.146 -0.098 0-0.194 0-0.292 0 -0.048-0.098-0.098-0.195-0.146-0.293 -0.098 0-0.194 0-0.292 0 -0.099-0.146-0.195-0.293-0.293-0.438 -0.098 0-0.195 0-0.292 0 -0.588-0.398-1.222-0.998-1.316-1.9 -0.098 0-0.194 0-0.292 0 -0.049-0.098-0.098-0.195-0.146-0.292 -0.146-0.049-0.293-0.099-0.438-0.147 -0.097-0.146-0.194-0.292-0.292-0.438 -0.098 0-0.194 0-0.293 0 0-0.049 0-0.097 0-0.146 -0.098 0-0.194 0-0.292 0 -0.098-0.146-0.195-0.293-0.292-0.438 -0.049 0-0.099 0-0.146 0 -0.16-0.317 0.064-0.875-0.146-1.17 -0.146-0.049-0.293-0.098-0.438-0.146 0-0.049 0-0.098 0-0.146 -0.098-0.049-0.195-0.099-0.292-0.147 0-0.097 0-0.194 0-0.292 -0.146-0.098-0.293-0.194-0.438-0.292 -0.05-0.195-0.098-0.391-0.147-0.585 -0.097-0.049-0.194-0.098-0.292-0.146 -0.049-0.195-0.098-0.39-0.146-0.585 -0.097-0.048-0.194-0.097-0.293-0.146 -0.048-0.195-0.097-0.391-0.145-0.585 -0.098-0.049-0.195-0.098-0.293-0.146 0-0.146 0-0.292 0-0.438 -0.049 0-0.098 0-0.146 0 0-0.098 0-0.195 0-0.292 -0.098-0.049-0.195-0.099-0.292-0.147 -0.049-0.194-0.098-0.39-0.146-0.584 -0.098-0.049-0.195-0.098-0.292-0.146 0-0.097 0-0.194 0-0.293 -0.195-0.146-0.391-0.292-0.586-0.438 0-0.097 0-0.194 0-0.292 -0.048 0-0.097 0-0.146 0 -0.146-0.194-0.292-0.39-0.438-0.584 -0.146-0.099-0.292-0.196-0.439-0.293 0-0.146 0-0.293 0-0.438 -0.048 0-0.097 0-0.146 0 -0.049-0.244-0.097-0.487-0.146-0.731 -0.098-0.049-0.194-0.098-0.292-0.146 0-0.098 0-0.194 0-0.292 -0.147-0.098-0.292-0.195-0.439-0.292 -0.048-0.147-0.098-0.293-0.146-0.439 -0.097-0.049-0.194-0.098-0.292-0.146 0-0.243 0-0.486 0-0.73 -0.049 0-0.098 0-0.146 0 0-0.097 0-0.194 0-0.293 -0.146-0.097-0.293-0.194-0.438-0.292 0-0.098 0-0.194 0-0.292 -0.049 0-0.099 0-0.146 0 0-0.098 0-0.195 0-0.292 -0.097-0.049-0.194-0.099-0.292-0.146 0-0.098 0-0.195 0-0.293 -0.098-0.049-0.195-0.098-0.293-0.146 0-0.292 0-0.584 0-0.876 -0.293-0.245-0.586-0.488-0.877-0.731 -0.195 0-0.391 0-0.585 0 -0.098-0.195-0.194-0.391-0.292-0.586 -0.342 0-0.684 0-1.023 0 -0.098 0.147-0.195 0.293-0.293 0.439 -0.098 0-0.195 0-0.292 0 -0.05 0.098-0.098 0.195-0.147 0.292 -0.242 0.195-0.486 0.391-0.731 0.586 -0.097 0.194-0.195 0.39-0.292 0.584 -0.098 0-0.195 0-0.292 0 -0.097 0.146-0.195 0.292-0.292 0.438 -0.147 0.049-0.292 0.098-0.439 0.146 0 0.098 0 0.194 0 0.293 -0.098 0.048-0.195 0.097-0.292 0.146 0 0.098 0 0.195 0 0.292 -0.146 0.049-0.292 0.098-0.438 0.146 0 0.049 0 0.098 0 0.146 -0.26 0.229-0.325 0.17-0.438 0.585 -0.147 0-0.292 0-0.439 0 -0.182 0.72-0.709 1.024-1.169 1.462 -0.049 0.098-0.097 0.194-0.147 0.292 -0.097 0-0.195 0-0.292 0 0 0.049 0 0.098 0 0.146 -0.217 0.201-0.189 0.075-0.292 0.439 -0.097 0-0.195 0-0.292 0 -0.195 0.243-0.391 0.486-0.585 0.73 -0.097 0-0.195 0-0.292 0 0 0.049 0 0.097 0 0.146 -0.146 0.098-0.292 0.196-0.439 0.293 0 0.098 0 0.195 0 0.293 -0.292 0.243-0.584 0.486-0.877 0.73 -0.048 0.146-0.097 0.293-0.146 0.438 -0.097 0.049-0.195 0.098-0.292 0.146 0 0.098 0 0.194 0 0.292 -0.098 0.049-0.195 0.098-0.293 0.146 0 0.098 0 0.194 0 0.293 -0.195 0.097-0.39 0.194-0.585 0.292 -0.438 0.487-0.877 0.975-1.315 1.462 -0.098 0-0.195 0-0.292 0 -0.049 0.098-0.097 0.195-0.146 0.292 -0.146 0.049-0.292 0.098-0.438 0.146 0 0.049 0 0.098 0 0.146 -0.097 0-0.195 0-0.292 0 -0.048 0.098-0.097 0.194-0.146 0.293 -0.146 0.049-0.292 0.097-0.439 0.146 -0.097 0.146-0.195 0.293-0.292 0.438 -0.098 0-0.195 0-0.292 0 -0.341 0.391-0.683 0.78-1.023 1.17 -0.097 0-0.195 0-0.292 0 -0.049 0.098-0.098 0.194-0.146 0.292 -0.146 0.049-0.292 0.098-0.439 0.147 0 0.048 0 0.097 0 0.145 -0.195 0.05-0.39 0.099-0.585 0.147 -0.195 0.243-0.39 0.487-0.584 0.73 -0.097 0-0.195 0-0.292 0 0 0.049 0 0.098 0 0.146 -0.333 0.28-0.545 0.6-1.023 0.73 -0.192 0.734-0.806 0.917-1.462 1.17 -0.146 0-0.293 0-0.439 0 -0.379 0.171-0.351 0.448-0.877 0.585 0 0.098 0 0.194 0 0.293 -0.333 0.075-0.364 0.126-0.585 0.292 0 0.049 0 0.098 0 0.146 -0.097 0-0.195 0-0.292 0 0 0.049 0 0.097 0 0.146 -0.146 0-0.293 0-0.439 0 0 0.049 0 0.098 0 0.146 -0.608 0.261-0.989 0.172-1.17 0.877 -0.097 0-0.195 0-0.292 0 0 0.049 0 0.098 0 0.146 -0.487 0-0.975 0-1.462 0 0 0.049 0 0.098 0 0.146 -0.195 0-0.39 0-0.585 0 0 0.049 0 0.097 0 0.146 -0.097 0-0.195 0-0.292 0 0 0.049 0 0.098 0 0.147 -0.244 0-0.487 0-0.731 0 0 0.048 0 0.097 0 0.146 -1.023-0.049-2.047-0.098-3.07-0.146 0-0.05 0-0.099 0-0.147 -0.098 0-0.195 0-0.292 0 0-0.049 0-0.097 0-0.146 -0.731 0-1.462 0-2.193 0 0-0.049 0-0.098 0-0.146 -0.341-0.049-0.683-0.098-1.023-0.146 0-0.048 0-0.097 0-0.146 -0.097 0-0.195 0-0.292 0 0-0.049 0-0.098 0-0.147 -0.146 0-0.292 0-0.439 0 0-0.048 0-0.097 0-0.145 -0.097 0-0.195 0-0.292 0 0-0.05 0-0.099 0-0.147 -0.146 0-0.292 0-0.439 0 0-0.048 0-0.098 0-0.146 -0.292-0.098-0.585-0.195-0.877-0.293 0-0.049 0-0.097 0-0.146 -0.292-0.098-0.585-0.195-0.877-0.293 0-0.048 0-0.097 0-0.146 -0.146-0.049-0.293-0.099-0.439-0.147 -0.049-0.097-0.097-0.194-0.146-0.292 -0.097 0-0.195 0-0.292 0 -0.049-0.098-0.098-0.194-0.146-0.292 -0.097 0-0.195 0-0.292 0 -0.097-0.146-0.195-0.292-0.292-0.438 -0.098 0-0.195 0-0.293 0 -0.195-0.244-0.39-0.488-0.584-0.731 -0.098-0.049-0.195-0.098-0.292-0.146 0-0.097 0-0.194 0-0.292 -0.146-0.098-0.292-0.194-0.438-0.293 -0.049-0.194-0.098-0.39-0.146-0.584 -0.097-0.049-0.195-0.098-0.292-0.146 0-0.243 0-0.487 0-0.731 -0.049 0-0.098 0-0.146 0 0.048-0.633 0.097-1.267 0.146-1.9 0.049 0 0.097 0 0.146 0 0-0.39 0-0.78 0-1.17 0.049 0 0.098 0 0.146 0 0-0.243 0-0.487 0-0.73 0.049 0 0.098 0 0.146 0 0-0.146 0-0.293 0-0.438 0.048 0 0.097 0 0.146 0 0.048-0.244 0.097-0.487 0.146-0.731 0.049 0 0.097 0 0.146 0 0-0.098 0-0.195 0-0.292 0.049 0 0.098 0 0.146 0 0.049-0.293 0.098-0.586 0.146-0.878 0.049 0 0.098 0 0.146 0 0-0.243 0-0.487 0-0.73 0.048 0 0.097 0 0.146 0 0.049-0.195 0.097-0.391 0.146-0.585 0.049 0 0.098 0 0.146 0 0-0.098 0-0.195 0-0.293 0.049 0 0.098 0 0.146 0 0-0.097 0-0.194 0-0.292 0.049 0 0.098 0 0.146 0 0-0.098 0-0.194 0-0.292 0.048 0 0.097 0 0.146 0 0-0.098 0-0.195 0-0.293 0.049 0 0.097 0 0.146 0 0-0.098 0-0.195 0-0.292 0.049 0 0.098 0 0.146 0 0-0.098 0-0.195 0-0.293 0.098-0.049 0.195-0.097 0.293-0.146 0-0.098 0-0.195 0-0.293 0.048 0 0.097 0 0.146 0 0-0.098 0-0.195 0-0.293 0.049 0 0.098 0 0.146 0 0-0.097 0-0.194 0-0.292 0.049 0 0.098 0 0.146 0 0-0.098 0-0.194 0-0.292 0.049 0 0.098 0 0.146 0 0.049-0.195 0.098-0.391 0.146-0.585 0.097-0.049 0.195-0.098 0.292-0.146 0-0.098 0-0.194 0-0.292 0.049 0 0.097 0 0.146 0 0-0.146 0-0.292 0-0.438 0.098-0.049 0.195-0.098 0.292-0.146 0-0.098 0-0.195 0-0.293 0.048 0 0.098 0 0.146 0 0-0.194 0-0.39 0-0.584 0.048 0 0.097 0 0.146 0 0-0.098 0-0.195 0-0.292 0.049 0 0.097 0 0.146 0 0-0.147 0-0.293 0-0.439 0.049 0 0.098 0 0.146 0 0-0.098 0-0.195 0-0.292 0.049 0 0.098 0 0.146 0 0-0.098 0-0.195 0-0.293 0.098-0.049 0.195-0.097 0.292-0.146 0-0.147 0-0.293 0-0.439 0.097-0.049 0.195-0.098 0.292-0.146 0.098-0.292 0.195-0.585 0.292-0.877 0.097-0.049 0.195-0.098 0.292-0.146 0-0.097 0-0.194 0-0.292 0.049 0 0.098 0 0.146 0 0-0.098 0-0.194 0-0.292 0.146-0.098 0.292-0.195 0.438-0.292 0-0.099 0-0.196 0-0.293 0.098-0.049 0.195-0.098 0.292-0.146 0-0.098 0-0.195 0-0.292 0.098-0.049 0.195-0.098 0.293-0.146 0.048-0.194 0.097-0.391 0.146-0.585 0.097-0.049 0.195-0.098 0.292-0.146 0.049-0.194 0.098-0.39 0.146-0.584 0.048 0 0.098 0 0.146 0 0-0.098 0-0.195 0-0.293 0.048 0 0.097 0 0.146 0 0-0.098 0-0.195 0-0.293 0.049 0 0.097 0 0.146 0 0-0.097 0-0.194 0-0.292 0.049 0 0.098 0 0.146 0 0-0.098 0-0.194 0-0.292 0.049 0 0.098 0 0.146 0 0-0.098 0-0.195 0-0.292 0.049 0 0.098 0 0.146 0 0-0.147 0-0.293 0-0.439 0.048 0 0.097 0 0.146 0 0-0.098 0-0.195 0-0.292 0.049 0 0.097 0 0.146 0 0.049-0.195 0.098-0.391 0.146-0.586 0.049 0 0.098 0 0.146 0 0-0.145 0-0.292 0-0.438 0.049 0 0.098 0 0.146 0 0-0.146 0-0.293 0-0.438 0.048 0 0.097 0 0.146 0 0-0.146 0-0.293 0-0.439 0.049 0 0.098 0 0.146 0 0-0.098 0-0.194 0-0.292 0.049 0 0.098 0 0.146 0 0-0.098 0-0.195 0-0.292 0.098-0.049 0.195-0.098 0.292-0.146 0-0.098 0-0.195 0-0.292 0.097-0.049 0.195-0.099 0.292-0.147 0-0.097 0-0.194 0-0.292 0.097-0.049 0.195-0.098 0.292-0.146 0.049-0.194 0.098-0.39 0.146-0.584 0.098-0.049 0.195-0.098 0.292-0.146 0-0.098 0-0.195 0-0.293 0.049 0 0.097 0 0.146 0 0-0.097 0-0.194 0-0.292 0.049 0 0.098 0 0.146 0 0-0.098 0-0.194 0-0.292 0.049 0 0.098 0 0.147 0 0-0.098 0-0.195 0-0.292 0.048 0 0.097 0 0.146 0 0-0.099 0-0.195 0-0.294 0.097-0.048 0.195-0.097 0.292-0.146 0-0.098 0-0.195 0-0.292 0.195-0.146 0.39-0.293 0.585-0.438 0-0.099 0-0.196 0-0.293 0.098-0.049 0.195-0.098 0.292-0.146 0-0.098 0-0.194 0-0.292 0.098-0.049 0.195-0.098 0.292-0.146 0.049-0.243 0.097-0.487 0.146-0.731 0.049 0 0.098 0 0.146 0 0.049-0.194 0.098-0.39 0.146-0.584 0.049 0 0.098 0 0.146 0 0-0.098 0-0.195 0-0.292 0.097-0.049 0.195-0.099 0.292-0.147 0-0.097 0-0.194 0-0.292 0.097-0.049 0.195-0.098 0.292-0.146 0-0.098 0-0.195 0-0.293 0.488-0.439 0.975-0.877 1.462-1.316 0-0.097 0-0.195 0-0.292 0.098-0.05 0.195-0.098 0.293-0.146 0.048-0.147 0.097-0.293 0.146-0.439 0.049 0 0.097 0 0.146 0 0.049-0.195 0.098-0.39 0.146-0.584 0.098-0.049 0.195-0.097 0.292-0.146 0.048-0.196 0.097-0.391 0.146-0.585 0.049 0 0.098 0 0.146 0 0.049-0.146 0.098-0.292 0.146-0.438 0.098-0.049 0.195-0.098 0.292-0.146 0-0.098 0-0.195 0-0.293 0.244-0.195 0.487-0.39 0.731-0.584 0-0.097 0-0.195 0-0.292 0.097-0.049 0.195-0.098 0.292-0.147 0-0.097 0-0.195 0-0.292 0.146-0.098 0.292-0.195 0.439-0.292 0-0.097 0-0.195 0-0.292 0.097-0.049 0.195-0.098 0.292-0.146 0-0.097 0-0.195 0-0.293 0.098-0.048 0.195-0.097 0.292-0.146 0.049-0.244 0.098-0.487 0.146-0.73 0.048 0 0.097 0 0.146 0 -0.098-0.342-0.195-0.683-0.292-1.024 -0.195-0.048-0.39-0.097-0.584-0.146 0-0.049 0-0.097 0-0.146 -0.683 0.049-1.365 0.097-2.047 0.146 0 0.049 0 0.098 0 0.146 -0.098 0-0.195 0-0.292 0 0 0.049 0 0.098 0 0.146 -0.243 0.048-0.487 0.097-0.731 0.146 -0.049 0.097-0.097 0.195-0.146 0.292 -0.195 0.049-0.39 0.098-0.584 0.147 0 0.048 0 0.098 0 0.146 -0.098 0-0.195 0-0.292 0 0 0.048 0 0.097 0 0.146 -0.292 0.097-0.585 0.195-0.877 0.292 0 0.049 0 0.098 0 0.146 -0.292 0.048-0.585 0.097-0.877 0.146 0 0.049 0 0.097 0 0.146 -0.195 0-0.39 0-0.585 0 0 0.049 0 0.098 0 0.146 -0.438 0.05-0.877 0.098-1.316 0.147 0 0.049 0 0.098 0 0.146 -0.341 0-0.682 0-1.023 0 -0.37 0.113-0.954 0.475-1.608 0.292 0-0.049 0-0.098 0-0.146 -0.244 0-0.488 0-0.731 0 0-0.049 0-0.098 0-0.146 -0.049 0-0.098 0-0.146 0 0 0.049 0 0.098 0 0.146 -0.779 0-1.56 0-2.339 0 -0.325-0.103-0.614-0.354-1.023-0.439 -0.049-0.146-0.098-0.292-0.146-0.438 -0.982-0.165-1.076-0.431-1.024-1.608 0.146-0.097 0.293-0.195 0.439-0.293 0-0.048 0-0.097 0-0.146 0.097 0 0.195 0 0.292 0 0-0.049 0-0.098 0-0.146 0.731-0.049 1.462-0.098 2.193-0.146 0-0.048 0-0.097 0-0.146 0.195 0 0.39 0 0.585 0 0-0.049 0-0.097 0-0.146 0.098 0 0.195 0 0.292 0 0-0.049 0-0.098 0-0.146 0.146 0 0.292 0 0.438 0 0-0.049 0-0.098 0-0.146 0.195 0 0.39 0 0.585 0 0-0.048 0-0.097 0-0.146 0.097 0 0.195 0 0.292 0 0-0.049 0-0.097 0-0.147 0.244 0 0.488 0 0.731 0 0-0.048 0-0.097 0-0.146 0.195 0 0.39 0 0.585 0 0-0.049 0-0.097 0-0.146 0.244 0 0.487 0 0.731 0 0-0.049 0-0.098 0-0.146 0.146 0 0.292 0 0.438 0 0-0.049 0-0.098 0-0.146 0.098 0 0.195 0 0.292 0 0-0.048 0-0.097 0-0.146 0.195 0 0.39 0 0.585 0 0-0.049 0-0.097 0-0.146 0.146 0 0.292 0 0.438 0 0-0.049 0-0.098 0-0.146 0.146 0 0.292 0 0.438 0 0-0.049 0-0.098 0-0.146 0.146 0 0.292 0 0.439 0 0-0.048 0-0.098 0-0.146 0.292-0.049 0.584-0.098 0.877-0.146 0-0.048 0-0.097 0-0.146 0.098 0 0.195 0 0.292 0 0-0.049 0-0.097 0-0.146 0.146 0 0.292 0 0.439 0 0-0.049 0-0.098 0-0.146 0.097 0 0.195 0 0.292 0 0-0.049 0-0.098 0-0.146 0.098 0 0.195 0 0.292 0 0.049-0.097 0.098-0.195 0.146-0.292 0.097 0 0.195 0 0.292 0 0.049-0.098 0.098-0.195 0.146-0.293 0.536-0.195 1.072-0.39 1.608-0.584 0.049-0.098 0.098-0.195 0.146-0.292 0.244-0.048 0.487-0.097 0.731-0.146 0-0.049 0-0.097 0-0.147 0.146-0.049 0.292-0.097 0.438-0.146 0.049-0.098 0.098-0.195 0.146-0.292 0.146 0 0.292 0 0.438 0 0.861-0.345 1.697-0.261 1.754-1.462 0.146 0 0.293 0 0.439 0 0.063-0.712 0.367-0.852 0.585-1.315 0-0.146 0-0.292 0-0.439 0.146-0.097 0.292-0.195 0.438-0.292 0.049-0.195 0.098-0.39 0.146-0.584 0.098-0.049 0.195-0.098 0.292-0.146 0-0.098 0-0.196 0-0.293 0.097-0.049 0.195-0.098 0.292-0.146 0.049-0.195 0.098-0.39 0.146-0.584 0.049 0 0.098 0 0.146 0 0.048-0.195 0.097-0.39 0.146-0.585 0.049 0 0.098 0 0.146 0 0-0.146 0-0.292 0-0.438 0.049 0 0.098 0 0.146 0 0-0.098 0-0.195 0-0.292 0.049 0 0.098 0 0.146 0 0-0.146 0-0.292 0-0.439 0.048 0 0.097 0 0.146 0 0.049-0.195 0.097-0.39 0.146-0.584 0.049 0 0.098 0 0.146 0 0.049-0.244 0.098-0.487 0.146-0.731 0.049 0 0.098 0 0.146 0 0.048-0.243 0.097-0.487 0.146-0.73 0.097-0.049 0.195-0.097 0.292-0.146 0-0.098 0-0.195 0-0.293 0.098-0.049 0.195-0.098 0.292-0.146 0-0.098 0-0.195 0-0.292 0.097-0.049 0.195-0.097 0.292-0.146 0.146-0.438 0.292-0.877 0.438-1.316 0.098-0.049 0.195-0.097 0.292-0.146 0.049-0.195 0.097-0.391 0.146-0.585 0.049 0 0.098 0 0.146 0 0.049-0.195 0.098-0.39 0.146-0.584 0.049 0 0.098 0 0.146 0 0-0.195 0-0.39 0-0.585 0.048 0 0.097 0 0.146 0 0.098-0.292 0.195-0.584 0.292-0.877 0.049 0 0.098 0 0.146 0 0-0.147 0-0.293 0-0.439 0.098-0.049 0.195-0.098 0.292-0.146 0.049-0.292 0.098-0.585 0.146-0.877 0.098-0.049 0.195-0.098 0.292-0.146 0.049-0.292 0.098-0.584 0.146-0.877 -0.565-0.056-1.605-0.383-2.339-0.146 0 0.049 0 0.098 0 0.146 -0.146 0-0.292 0-0.438 0 0 0.05 0 0.098 0 0.147 -0.098 0-0.195 0-0.292 0 0 0.049 0 0.098 0 0.146 -0.244 0.049-0.487 0.098-0.731 0.146 -0.049 0.097-0.098 0.195-0.146 0.292 -0.195 0-0.39 0-0.584 0 0 0.049 0 0.098 0 0.146 -0.098 0-0.195 0-0.293 0 0 0.049 0 0.098 0 0.146 -0.292 0.048-0.584 0.097-0.877 0.146 0 0.048 0 0.098 0 0.146 -0.098 0-0.195 0-0.292 0 0 0.048 0 0.097 0 0.146 -0.195 0-0.39 0-0.584 0 0 0.049 0 0.097 0 0.146 -0.195 0-0.39 0-0.585 0 0 0.049 0 0.098 0 0.146 -0.195 0-0.39 0-0.585 0 0 0.049 0 0.098 0 0.146 -0.195 0-0.39 0-0.585 0 0 0.048 0 0.097 0 0.146 -0.097 0-0.195 0-0.292 0 0 0.049 0 0.097 0 0.146 -0.195 0-0.39 0-0.585 0 0 0.049 0 0.098 0 0.146 -0.195 0.05-0.39 0.098-0.584 0.147 0 0.049 0 0.098 0 0.146 -0.195 0.049-0.39 0.098-0.584 0.146 -0.049 0.097-0.098 0.195-0.146 0.292 -0.098 0-0.195 0-0.292 0 -0.244 0.341-0.487 0.683-0.731 1.023 -0.313 0.845 0.323 1.411 0 2.047 -0.097 0.049-0.195 0.098-0.292 0.146 0 0.098 0 0.195 0 0.292 -0.146 0.097-0.292 0.195-0.439 0.292 0 0.098 0 0.195 0 0.292 -0.146 0.098-0.292 0.195-0.438 0.293 -0.049 0.195-0.097 0.39-0.146 0.584 -0.097 0.049-0.195 0.097-0.292 0.146 0 0.098 0 0.195 0 0.293 -0.049 0-0.098 0-0.146 0 -0.049 0.195-0.098 0.39-0.146 0.584 -0.049 0-0.098 0-0.146 0 0 0.682 0 1.365 0 2.047 0.049 0 0.098 0 0.146 0 -0.049 0.438-0.098 0.876-0.146 1.316 0.049 0 0.098 0 0.146 0 0 0.097 0 0.195 0 0.292 0.049 0 0.098 0 0.146 0 0.205 0.611-0.289 1.439-0.439 1.754 0 0.097 0 0.195 0 0.292 -0.049 0-0.097 0-0.146 0 0 0.098 0 0.196 0 0.293 -0.049 0-0.098 0-0.146 0 0 0.195 0 0.39 0 0.584 0.048 0 0.097 0 0.146 0 0.109 0.451-0.093 0.703-0.146 1.023 -0.39 0.195-0.78 0.39-1.17 0.585 -0.633-0.049-1.268-0.097-1.9-0.147 0 0.05 0 0.098 0 0.147 -0.39 0.049-0.78 0.098-1.17 0.146 0 0.049 0 0.098 0 0.146 -0.536-0.098-1.072-0.195-1.608-0.292 0-0.049 0-0.097 0-0.147 -0.439-0.097-0.877-0.195-1.316-0.292 -0.049-0.098-0.097-0.195-0.146-0.292 -0.292-0.097-0.585-0.195-0.877-0.292 -0.049-0.098-0.098-0.195-0.146-0.292 -0.098 0-0.195 0-0.293 0 -0.048-0.098-0.097-0.195-0.146-0.293 -0.244-0.195-0.487-0.39-0.731-0.584 -0.049-0.195-0.098-0.39-0.146-0.585 -0.049 0-0.098 0-0.146 0 -0.741-1.855 0.882-6.552-1.462-6.726 0 0.049 0 0.098 0 0.146 -0.146 0-0.292 0-0.439 0 0 0.048 0 0.097 0 0.146 -0.097 0-0.195 0-0.292 0 0 0.049 0 0.097 0 0.146 -0.292 0-0.585 0-0.877 0 0 0.049 0 0.098 0 0.146 -0.195 0-0.39 0-0.584 0 0 0.049 0 0.098 0 0.147 -1.706 0.048-3.412 0.098-5.117 0.146 0-0.048 0-0.098 0-0.146 -0.341 0-0.683 0-1.024 0 -0.591-0.192-0.95-0.534-1.754-0.585 0-0.244 0-0.488 0-0.731 0.828-0.083 1.345-0.817 1.901-1.17 0.097 0 0.195 0 0.292 0 0-0.048 0-0.097 0-0.146 0.244-0.049 0.487-0.097 0.731-0.146 0-0.049 0-0.098 0-0.146 0.097 0 0.195 0 0.292 0 0-0.049 0-0.098 0-0.146 0.293-0.097 0.585-0.195 0.877-0.292 0-0.049 0-0.098 0-0.146 0.146 0 0.292 0 0.438 0 0-0.049 0-0.099 0-0.146 0.098 0 0.195 0 0.292 0 0-0.049 0-0.098 0-0.147 0.195-0.048 0.39-0.097 0.585-0.146 0-0.049 0-0.097 0-0.146 0.146 0 0.292 0 0.438 0 0-0.049 0-0.098 0-0.146 0.195-0.049 0.39-0.098 0.585-0.146 0-0.048 0-0.097 0-0.146 0.146 0 0.292 0 0.438 0 0-0.049 0-0.097 0-0.146 0.146 0 0.293 0 0.439 0 0-0.049 0-0.098 0-0.147 0.097 0 0.195 0 0.292 0 0-0.048 0-0.097 0-0.146 0.098 0 0.195 0 0.293 0 0-0.049 0-0.098 0-0.146 0.097 0 0.195 0 0.292 0 0-0.049 0-0.098 0-0.146 0.098 0 0.195 0 0.292 0 0-0.048 0-0.097 0-0.146 0.098 0 0.195 0 0.292 0 0.049-0.097 0.097-0.195 0.146-0.292 0.174-0.113 0.628-0.12 0.731-0.292 0-0.097 0-0.195 0-0.293 0.341-0.39 0.146-3.416 0.146-4.24 0-2.388 0-4.776 0-7.164 -0.049 0-0.097 0-0.146 0 0-0.244 0-0.487 0-0.731 -0.048 0-0.097 0-0.146 0 0-0.146 0-0.292 0-0.438 -0.049 0-0.098 0-0.146 0 -0.33-1.046 0.255-2.268 0.292-3.07 0.453-0.241 0.263-0.278 1.023-0.293 0.226 0.36 0.167 0.09 0.439 0.293 0.195 0.244 0.39 0.487 0.585 0.73 0.097 0 0.195 0 0.292 0 0.244 0.293 0.488 0.585 0.731 0.877 0.098 0 0.195 0 0.293 0 0.146 0.195 0.292 0.39 0.438 0.584 0.049 0 0.098 0 0.146 0 0 0.098 0 0.196 0 0.293 0.098 0.049 0.195 0.098 0.293 0.146 0 0.146 0 0.292 0 0.438 0.048 0 0.097 0 0.146 0 0 0.098 0 0.195 0 0.292 0.049 0 0.097 0 0.146 0 0 0.097 0 0.195 0 0.293 0.049 0 0.098 0 0.146 0 0 0.097 0 0.195 0 0.292 0.049 0 0.098 0 0.146 0 0 0.098 0 0.195 0 0.292 0.048 0 0.098 0 0.146 0 0.048 0.195 0.097 0.39 0.146 0.585 0.097 0.049 0.195 0.098 0.292 0.146 0.049 0.195 0.098 0.39 0.146 0.584 0.098 0.049 0.195 0.098 0.292 0.146 0 0.097 0 0.195 0 0.292 0.049 0 0.097 0 0.146 0 0 0.098 0 0.196 0 0.293 0.049 0 0.098 0 0.146 0 0 0.098 0 0.195 0 0.292 0.049 0 0.098 0 0.146 0 0 0.097 0 0.195 0 0.292 0.049 0 0.098 0 0.146 0 0.048 0.195 0.097 0.391 0.146 0.585 0.098 0.049 0.195 0.097 0.292 0.146 0 0.098 0 0.195 0 0.292 0.049 0 0.098 0 0.146 0 0 0.097 0 0.195 0 0.292 0.049 0 0.098 0 0.146 0 0 0.098 0 0.195 0 0.293 0.048 0 0.097 0 0.146 0 0 0.098 0 0.195 0 0.292 0.098 0.048 0.195 0.097 0.292 0.146 0.049 0.244 0.098 0.487 0.146 0.73 0.098 0.049 0.195 0.098 0.293 0.147 0 0.097 0 0.195 0 0.292 0.048 0 0.097 0 0.146 0 0 0.146 0 0.292 0 0.438 0.049 0 0.097 0 0.146 0 0.049 0.195 0.098 0.391 0.146 0.585 0.049 0 0.098 0 0.147 0 0 0.146 0 0.292 0 0.438 0.048 0 0.097 0 0.146 0 0 0.098 0 0.195 0 0.292 0.097 0.049 0.195 0.097 0.292 0.146 0 0.098 0 0.196 0 0.293 0.293 0.244 0.585 0.487 0.877 0.731 0.098 0.146 0.195 0.292 0.292 0.438 0.244 0 0.487 0 0.731 0 0.257-0.277 0.255-0.134 0.585-0.292 0-0.049 0-0.098 0-0.146 0.195 0 0.39 0 0.584 0 0-0.049 0-0.098 0-0.146 0.098 0 0.195 0 0.293 0 0-0.048 0-0.097 0-0.146 0.877-0.244 1.754-0.487 2.631-0.731 0-0.049 0-0.097 0-0.146 0.146 0 0.293 0 0.439 0 0-0.049 0-0.098 0-0.146 0.146 0 0.292 0 0.438 0 0-0.049 0-0.098 0-0.146 0.487-0.097 0.975-0.195 1.462-0.292 0-0.049 0-0.098 0-0.146 0.146 0 0.292 0 0.438 0 0-0.049 0-0.098 0-0.146 0.146 0 0.292 0 0.439 0 0-0.048 0-0.098 0-0.146 0.146 0 0.292 0 0.438 0 0-0.049 0-0.098 0-0.146 0.438-0.048 0.877-0.097 1.316-0.146 0-0.049 0-0.097 0-0.146 0.146 0 0.292 0 0.438 0 0-0.049 0-0.098 0-0.146 0.195 0 0.39 0 0.585 0 0-0.049 0-0.098 0-0.146 0.146 0 0.292 0 0.438 0 0-0.048 0-0.097 0-0.146 0.146 0 0.292 0 0.439 0 0-0.049 0-0.097 0-0.146 0.146 0 0.292 0 0.438 0 0-0.049 0-0.098 0-0.147 0.146 0 0.292 0 0.439 0 0-0.049 0-0.097 0-0.146 0.195 0 0.39 0 0.584 0 0-0.049 0-0.098 0-0.146 0.195-0.049 0.39-0.098 0.584-0.146 0-0.048 0-0.097 0-0.146 0.195 0 0.39 0 0.585 0 0-0.049 0-0.097 0-0.146 0.146 0 0.292 0 0.439 0 0-0.049 0-0.098 0-0.146 0.097 0 0.195 0 0.292 0 0-0.049 0-0.098 0-0.146 0.195 0 0.39 0 0.585 0 0-0.048 0-0.097 0-0.146 0.292-0.098 0.584-0.195 0.877-0.293 0-0.292 0-0.584 0-0.876 -0.341-0.293-0.682-0.585-1.023-0.877 0-0.049 0-0.098 0-0.146 -0.098 0-0.195 0-0.292 0 -0.049-0.097-0.097-0.195-0.146-0.293 -0.097 0-0.195 0-0.292 0 -0.098-0.146-0.195-0.292-0.292-0.438 -0.097 0-0.195 0-0.292 0 -0.162-0.142-0.108-0.296-0.146-0.584 0.171-0.095 0.21-0.239 0.292-0.293 0.098 0 0.195 0 0.292 0 0.049-0.097 0.098-0.195 0.146-0.292 0.633 0 1.267 0 1.9 0 0.474 0.538 2.393 0.31 3.363 0.292 0.098-0.146 0.195-0.292 0.292-0.438 0.048 0 0.097 0 0.146 0 0-0.098 0-0.195 0-0.292 0.097-0.049 0.195-0.097 0.293-0.146 0-0.098 0-0.195 0-0.293 0.048 0 0.097 0 0.146 0 0-0.098 0-0.195 0-0.292 0.049 0 0.097 0 0.146 0 0-0.097 0-0.195 0-0.292 0.098-0.049 0.196-0.098 0.293-0.146 0.048-0.195 0.098-0.39 0.146-0.585 0.049 0 0.097 0 0.147 0 0-0.097 0-0.195 0-0.292 0.048 0 0.097 0 0.145 0 0-0.195 0-0.39 0-0.584 0.05 0 0.098 0 0.147 0 0.048-0.195 0.098-0.391 0.146-0.585 0.049 0 0.098 0 0.146 0 0-0.341 0-0.682 0-1.023 0.049 0 0.097 0 0.146 0 -0.049-0.487-0.097-0.975-0.146-1.462 -0.146-0.098-0.292-0.195-0.439-0.292 -0.048-0.097-0.097-0.195-0.145-0.292 -0.342 0-0.683 0-1.024 0 -0.227-0.208-1.576-0.286-2.047-0.146 0 0.049 0 0.098 0 0.146 -0.292 0-0.585 0-0.877 0 -0.098 0.146-0.195 0.292-0.293 0.438 -0.195 0-0.39 0-0.585 0 -0.048 0.098-0.097 0.195-0.146 0.292 -0.195 0.049-0.39 0.097-0.585 0.146 -0.048 0.098-0.097 0.196-0.146 0.293 -0.292 0.098-0.585 0.195-0.877 0.292 -0.097 0.146-0.195 0.292-0.292 0.438 -0.313 0.218-0.623 0.341-1.024 0.439 0-0.098 0-0.195 0-0.293 0.439-0.39 0.877-0.779 1.316-1.17 0.049-0.097 0.098-0.195 0.146-0.292 0.146-0.049 0.292-0.098 0.439-0.146 0.39-0.438 0.779-0.877 1.169-1.315 1.024-0.536 2.047-1.072 3.071-1.608 1.023-0.146 2.047-0.293 3.071-0.439 0.9-0.282 1.723-0.582 2.924-0.584 1.754 0 3.508 0 5.263 0 0.05 0.098 0.098 0.195 0.146 0.292 0.341 0.048 0.683 0.097 1.023 0.146 0 0.049 0 0.097 0 0.146 0.195 0.049 0.39 0.098 0.585 0.146 0.048 0.098 0.098 0.196 0.146 0.293 0.411 0.279 0.579 0.173 0.73 0.731 0.049 0 0.097 0 0.146 0 0.048 0.292 0.098 0.585 0.146 0.877 0.049 0 0.097 0 0.146 0 0 0.097 0 0.195 0 0.292 0.049 0 0.098 0 0.146 0 0.231 0.666-0.113 1.536-0.292 1.901 -0.049 0-0.099 0-0.146 0 0 0.146 0 0.292 0 0.438 -0.098 0.049-0.194 0.098-0.292 0.146 -0.05 0.195-0.098 0.391-0.147 0.585 -0.194 0.146-0.39 0.292-0.584 0.438 0 0.097 0 0.195 0 0.292 -0.098 0.049-0.195 0.098-0.292 0.147 0 0.098 0 0.195 0 0.292 -0.195 0.146-0.39 0.292-0.586 0.438 -0.048 0.195-0.097 0.39-0.146 0.584 -0.049 0-0.098 0-0.147 0 0 0.391 0 0.78 0 1.17 0.196 0.147 0.391 0.293 0.586 0.439 0 0.049 0 0.098 0 0.146 0.245 0.169 0.335-0.003 0.585 0.292 0.682 0 1.364 0 2.047 0 0-0.049 0-0.098 0-0.146 0.195-0.049 0.39-0.098 0.585-0.146 0-0.048 0-0.097 0-0.146 0.194 0 0.39 0 0.584 0 0-0.049 0-0.097 0-0.146 0.098 0 0.195 0 0.293 0 0-0.049 0-0.098 0-0.146 0.341 0 0.683 0 1.023 0 0.287 0.421 0.754 0.435 1.17 0.73 0 0.049 0 0.097 0 0.146 0.195 0.146 0.39 0.293 0.585 0.439 0 0.098 0 0.195 0 0.292 0.097 0.049 0.194 0.097 0.292 0.146C64.863 12.557 65.017 12.757 65.015 13.706z"/></svg>